<svg version="1.1" width="16" height="16" viewBox="0 0 16 16" xmlns="http://www.w3.org/2000/svg" xmlns:xlink="http://www.w3.org/1999/xlink" fill="currentColor" overflow="hidden"><path d=" M 8.707 1.5 C 8.3165 1.10962 7.6835 1.10962 7.293 1.5 L 0.646 8.146 C 0.450491 8.34151 0.450491 8.65849 0.646 8.854 C 0.841509 9.04951 1.15849 9.04951 1.354 8.854 L 2 8.207 L 2 13.5 C 2 14.3284 2.67157 15 3.5 15 L 7.5 15 C 7.77614 15 8 14.7761 8 14.5 C 8 14.2239 7.77614 14 7.5 14 L 3.5 14 C 3.22386 14 3 13.7761 3 13.5 L 3 7.207 L 8 2.207 L 14.646 8.854 C 14.8415 9.04951 15.1585 9.04951 15.354 8.854 C 15.5495 8.65849 15.5495 8.34151 15.354 8.146 L 13 5.793 L 13 2.5 C 13 2.22386 12.7761 2 12.5 2 L 11.5 2 C 11.2239 2 11 2.22386 11 2.5 L 11 3.793 L 8.707 1.5 Z" stroke="none" stroke-width="1" stroke-dasharray="" stroke-dashoffset="1" fill="#FF7C80" fill-opacity="1"/><path d=" M 16 12.5 C 16 14.433 14.433 16 12.5 16 C 10.567 16 9 14.433 9 12.5 C 9 10.567 10.567 9 12.5 9 C 14.433 9 16 10.567 16 12.5 Z M 12.5 10.5 C 12.7761 10.5 13 10.7239 13 11 L 13 12 L 14 12 C 14.2761 12 14.5 12.2239 14.5 12.5 C 14.5 12.7761 14.2761 13 14 13 L 13 13 L 13 14 C 13 14.2761 12.7761 14.5 12.5 14.5 C 12.2239 14.5 12 14.2761 12 14 L 12 13 L 11 13 C 10.7239 13 10.5 12.7761 10.5 12.5 C 10.5 12.2239 10.7239 12 11 12 L 12 12 L 12 11 C 12 10.7239 12.2239 10.5 12.5 10.5 Z" stroke="none" stroke-width="1" stroke-dasharray="" stroke-dashoffset="1" fill="#FF7C80" fill-rule="evenodd" fill-opacity="1"/></svg>